<svg width="100%" height="100%" viewBox="0 0 512 512" version="1.1" xmlns="http://www.w3.org/2000/svg" xmlns:xlink="http://www.w3.org/1999/xlink" xml:space="preserve" xmlns:serif="http://www.serif.com/" style="fill-rule:evenodd;clip-rule:evenodd;stroke-linejoin:round;stroke-miterlimit:2;">
    <g transform="matrix(1,0,0,1,-44,0)">
        <path d="M406.069,105.931C391.443,105.931 379.586,94.074 379.586,79.448L379.586,0L141.241,0C126.615,0 114.758,11.857 114.758,26.483L114.758,485.517C114.758,500.143 126.615,512 141.241,512L459.034,512C473.66,512 485.517,500.143 485.517,485.517L485.517,105.931L406.069,105.931Z" style="fill:rgb(228,234,246);fill-rule:nonzero;"/>
    </g>
    <g transform="matrix(1,0,0,1,-44,0)">
        <path d="M406.069,105.931L485.517,105.931L379.586,0L379.586,79.448C379.586,94.074 391.443,105.931 406.069,105.931Z" style="fill:rgb(210,220,240);fill-rule:nonzero;"/>
    </g>
</svg>
